<svg xmlns="http://www.w3.org/2000/svg" xmlns:xlink="http://www.w3.org/1999/xlink" width="1500" zoomAndPan="magnify" viewBox="0 0 1125 374.999991" height="500" preserveAspectRatio="xMidYMid meet" version="1.0"><defs><g><g id="id1"/><g id="id2"/></g></defs><rect x="-112.5" width="1350" fill="rgb(100%, 100%, 100%)" y="-37.499999" height="449.999989" fill-opacity="1"/><rect x="-112.5" width="1350" fill="rgb(100%, 100%, 100%)" y="-37.499999" height="449.999989" fill-opacity="1"/><rect x="-112.5" width="1350" fill="rgb(100%, 100%, 100%)" y="-37.499999" height="449.999989" fill-opacity="1"/><g fill="rgb(13.328552%, 13.328552%, 13.328552%)" fill-opacity="1"><g transform="translate(0.0000135, 230.042014)"><g><path d="M 48.796875 -89.421875 C 56.546875 -89.421875 63.289062 -88.140625 69.03125 -85.578125 C 74.78125 -83.023438 79.1875 -79.363281 82.25 -74.59375 C 85.320312 -69.820312 86.859375 -64.160156 86.859375 -57.609375 C 86.859375 -51.140625 85.320312 -45.5 82.25 -40.6875 C 79.1875 -35.875 74.78125 -32.1875 69.03125 -29.625 C 63.289062 -27.070312 56.546875 -25.796875 48.796875 -25.796875 L 28.609375 -25.796875 L 28.609375 0 L 12 0 L 12 -89.421875 Z M 48.03125 -39.859375 C 55.269531 -39.859375 60.757812 -41.390625 64.5 -44.453125 C 68.25 -47.515625 70.125 -51.898438 70.125 -57.609375 C 70.125 -63.316406 68.25 -67.703125 64.5 -70.765625 C 60.757812 -73.828125 55.269531 -75.359375 48.03125 -75.359375 L 28.609375 -75.359375 L 28.609375 -39.859375 Z M 48.03125 -39.859375 "/></g></g></g><g fill="rgb(13.328552%, 13.328552%, 13.328552%)" fill-opacity="1"><g transform="translate(148.915623, 230.042014)"><g><path d="M 53.390625 1.28125 C 44.367188 1.28125 36.21875 -0.695312 28.9375 -4.65625 C 21.65625 -8.625 15.945312 -14.097656 11.8125 -21.078125 C 7.6875 -28.054688 5.625 -35.929688 5.625 -44.703125 C 5.625 -53.472656 7.707031 -61.347656 11.875 -68.328125 C 16.050781 -75.316406 21.78125 -80.789062 29.0625 -84.75 C 36.34375 -88.707031 44.492188 -90.6875 53.515625 -90.6875 C 60.835938 -90.6875 67.519531 -89.410156 73.5625 -86.859375 C 79.613281 -84.304688 84.726562 -80.601562 88.90625 -75.75 L 78.171875 -65.65625 C 71.703125 -72.632812 63.738281 -76.125 54.28125 -76.125 C 48.15625 -76.125 42.664062 -74.78125 37.8125 -72.09375 C 32.957031 -69.414062 29.164062 -65.691406 26.4375 -60.921875 C 23.71875 -56.160156 22.359375 -50.753906 22.359375 -44.703125 C 22.359375 -38.660156 23.71875 -33.253906 26.4375 -28.484375 C 29.164062 -23.710938 32.957031 -19.984375 37.8125 -17.296875 C 42.664062 -14.617188 48.15625 -13.28125 54.28125 -13.28125 C 63.738281 -13.28125 71.703125 -16.816406 78.171875 -23.890625 L 88.90625 -13.671875 C 84.726562 -8.816406 79.59375 -5.109375 73.5 -2.546875 C 67.414062 0.00390625 60.710938 1.28125 53.390625 1.28125 Z M 53.390625 1.28125 "/></g></g></g><g fill="rgb(13.328552%, 13.328552%, 13.328552%)" fill-opacity="1"><g transform="translate(297.95893, 230.042014)"><g><path d="M 7.03125 -42.15625 L 42.15625 -42.15625 L 42.15625 -28.875 L 7.03125 -28.875 Z M 7.03125 -42.15625 "/></g></g></g><g fill="rgb(13.328552%, 13.328552%, 13.328552%)" fill-opacity="1"><g transform="translate(403.327079, 230.042014)"><g><path d="M 48.796875 -89.421875 C 56.546875 -89.421875 63.289062 -88.140625 69.03125 -85.578125 C 74.78125 -83.023438 79.1875 -79.363281 82.25 -74.59375 C 85.320312 -69.820312 86.859375 -64.160156 86.859375 -57.609375 C 86.859375 -51.140625 85.320312 -45.5 82.25 -40.6875 C 79.1875 -35.875 74.78125 -32.1875 69.03125 -29.625 C 63.289062 -27.070312 56.546875 -25.796875 48.796875 -25.796875 L 28.609375 -25.796875 L 28.609375 0 L 12 0 L 12 -89.421875 Z M 48.03125 -39.859375 C 55.269531 -39.859375 60.757812 -41.390625 64.5 -44.453125 C 68.25 -47.515625 70.125 -51.898438 70.125 -57.609375 C 70.125 -63.316406 68.25 -67.703125 64.5 -70.765625 C 60.757812 -73.828125 55.269531 -75.359375 48.03125 -75.359375 L 28.609375 -75.359375 L 28.609375 -39.859375 Z M 48.03125 -39.859375 "/></g></g></g><g fill="rgb(13.328552%, 13.328552%, 13.328552%)" fill-opacity="1"><g transform="translate(552.242689, 230.042014)"><g><path d="M 70 -20.6875 L 25.296875 -20.6875 L 16.484375 0 L -0.640625 0 L 39.59375 -89.421875 L 55.953125 -89.421875 L 96.3125 0 L 78.9375 0 Z M 64.5 -33.71875 L 47.640625 -72.8125 L 30.90625 -33.71875 Z M 64.5 -33.71875 "/></g></g></g><g fill="rgb(13.328552%, 13.328552%, 13.328552%)" fill-opacity="1"><g transform="translate(704.095475, 230.042014)"><g><path d="M 70.515625 0 L 52.25 -26.1875 C 51.476562 -26.101562 50.328125 -26.0625 48.796875 -26.0625 L 28.609375 -26.0625 L 28.609375 0 L 12 0 L 12 -89.421875 L 48.796875 -89.421875 C 56.546875 -89.421875 63.289062 -88.140625 69.03125 -85.578125 C 74.78125 -83.023438 79.1875 -79.363281 82.25 -74.59375 C 85.320312 -69.820312 86.859375 -64.160156 86.859375 -57.609375 C 86.859375 -50.878906 85.21875 -45.085938 81.9375 -40.234375 C 78.664062 -35.378906 73.960938 -31.757812 67.828125 -29.375 L 88.390625 0 Z M 70.125 -57.609375 C 70.125 -63.316406 68.25 -67.703125 64.5 -70.765625 C 60.757812 -73.828125 55.269531 -75.359375 48.03125 -75.359375 L 28.609375 -75.359375 L 28.609375 -39.71875 L 48.03125 -39.71875 C 55.269531 -39.71875 60.757812 -41.269531 64.5 -44.375 C 68.25 -47.488281 70.125 -51.898438 70.125 -57.609375 Z M 70.125 -57.609375 "/></g></g></g><g fill="rgb(13.328552%, 13.328552%, 13.328552%)" fill-opacity="1"><g transform="translate(853.649608, 230.042014)"><g><path d="M 30.140625 -75.359375 L 0.515625 -75.359375 L 0.515625 -89.421875 L 76.390625 -89.421875 L 76.390625 -75.359375 L 46.75 -75.359375 L 46.75 0 L 30.140625 0 Z M 30.140625 -75.359375 "/></g></g></g><g fill="rgb(13.328552%, 13.328552%, 13.328552%)" fill-opacity="1"><g transform="translate(986.729789, 230.042014)"><g><path d="M 39.71875 1.28125 C 32.820312 1.28125 26.160156 0.300781 19.734375 -1.65625 C 13.304688 -3.613281 8.21875 -6.210938 4.46875 -9.453125 L 10.21875 -22.359375 C 13.882812 -19.460938 18.375 -17.097656 23.6875 -15.265625 C 29.007812 -13.429688 34.351562 -12.515625 39.71875 -12.515625 C 46.363281 -12.515625 51.328125 -13.578125 54.609375 -15.703125 C 57.890625 -17.835938 59.53125 -20.648438 59.53125 -24.140625 C 59.53125 -26.691406 58.613281 -28.796875 56.78125 -30.453125 C 54.945312 -32.117188 52.625 -33.421875 49.8125 -34.359375 C 47 -35.296875 43.171875 -36.359375 38.328125 -37.546875 C 31.515625 -39.171875 26 -40.789062 21.78125 -42.40625 C 17.5625 -44.019531 13.941406 -46.550781 10.921875 -50 C 7.898438 -53.457031 6.390625 -58.125 6.390625 -64 C 6.390625 -68.9375 7.726562 -73.425781 10.40625 -77.46875 C 13.09375 -81.507812 17.140625 -84.722656 22.546875 -87.109375 C 27.953125 -89.492188 34.570312 -90.6875 42.40625 -90.6875 C 47.851562 -90.6875 53.21875 -90.003906 58.5 -88.640625 C 63.78125 -87.285156 68.335938 -85.328125 72.171875 -82.765625 L 66.9375 -69.875 C 63.019531 -72.164062 58.929688 -73.90625 54.671875 -75.09375 C 50.410156 -76.289062 46.28125 -76.890625 42.28125 -76.890625 C 35.71875 -76.890625 30.835938 -75.78125 27.640625 -73.5625 C 24.453125 -71.351562 22.859375 -68.421875 22.859375 -64.765625 C 22.859375 -62.203125 23.773438 -60.113281 25.609375 -58.5 C 27.441406 -56.882812 29.757812 -55.609375 32.5625 -54.671875 C 35.375 -53.734375 39.207031 -52.671875 44.0625 -51.484375 C 50.707031 -49.941406 56.160156 -48.34375 60.421875 -46.6875 C 64.679688 -45.03125 68.320312 -42.5 71.34375 -39.09375 C 74.363281 -35.6875 75.875 -31.085938 75.875 -25.296875 C 75.875 -20.359375 74.53125 -15.882812 71.84375 -11.875 C 69.164062 -7.875 65.101562 -4.679688 59.65625 -2.296875 C 54.207031 0.0859375 47.5625 1.28125 39.71875 1.28125 Z M 39.71875 1.28125 "/></g></g></g><g fill="rgb(13.328552%, 13.328552%, 13.328552%)" fill-opacity="1"><g transform="translate(11.076715, 355.066464)"><g><path d="M 25.453125 -40.96875 C 20.503906 -40.96875 16.597656 -39.316406 13.734375 -36.015625 C 10.878906 -32.722656 9.453125 -28.21875 9.453125 -22.5 C 9.453125 -16.613281 10.832031 -12.0625 13.59375 -8.84375 C 16.351562 -5.632812 20.285156 -4.03125 25.390625 -4.03125 C 28.523438 -4.03125 32.101562 -4.59375 36.125 -5.71875 L 36.125 -1.140625 C 33.007812 0.0234375 29.164062 0.609375 24.59375 0.609375 C 17.96875 0.609375 12.851562 -1.398438 9.25 -5.421875 C 5.644531 -9.441406 3.84375 -15.15625 3.84375 -22.5625 C 3.84375 -27.195312 4.707031 -31.257812 6.4375 -34.75 C 8.175781 -38.238281 10.679688 -40.925781 13.953125 -42.8125 C 17.222656 -44.695312 21.078125 -45.640625 25.515625 -45.640625 C 30.234375 -45.640625 34.359375 -44.78125 37.890625 -43.0625 L 35.671875 -38.5625 C 32.265625 -40.164062 28.859375 -40.96875 25.453125 -40.96875 Z M 25.453125 -40.96875 "/></g></g></g><g fill="rgb(13.328552%, 13.328552%, 13.328552%)" fill-opacity="1"><g transform="translate(67.841166, 355.066464)"><g><path d="M 34.46875 0 L 28.875 -14.3125 L 10.828125 -14.3125 L 5.296875 0 L 0 0 L 17.796875 -45.1875 L 22.1875 -45.1875 L 39.890625 0 Z M 27.234375 -19.015625 L 22 -32.96875 C 21.320312 -34.726562 20.625 -36.890625 19.90625 -39.453125 C 19.457031 -37.484375 18.8125 -35.320312 17.96875 -32.96875 L 12.6875 -19.015625 Z M 27.234375 -19.015625 "/></g></g></g><g fill="rgb(13.328552%, 13.328552%, 13.328552%)" fill-opacity="1"><g transform="translate(124.728654, 355.066464)"><g><path d="M 6.1875 0 L 6.1875 -45 L 11.421875 -45 L 11.421875 -4.734375 L 31.265625 -4.734375 L 31.265625 0 Z M 6.1875 0 "/></g></g></g><g fill="rgb(13.328552%, 13.328552%, 13.328552%)" fill-opacity="1"><g transform="translate(174.449301, 355.066464)"><g><path d="M 25.453125 -40.96875 C 20.503906 -40.96875 16.597656 -39.316406 13.734375 -36.015625 C 10.878906 -32.722656 9.453125 -28.21875 9.453125 -22.5 C 9.453125 -16.613281 10.832031 -12.0625 13.59375 -8.84375 C 16.351562 -5.632812 20.285156 -4.03125 25.390625 -4.03125 C 28.523438 -4.03125 32.101562 -4.59375 36.125 -5.71875 L 36.125 -1.140625 C 33.007812 0.0234375 29.164062 0.609375 24.59375 0.609375 C 17.96875 0.609375 12.851562 -1.398438 9.25 -5.421875 C 5.644531 -9.441406 3.84375 -15.15625 3.84375 -22.5625 C 3.84375 -27.195312 4.707031 -31.257812 6.4375 -34.75 C 8.175781 -38.238281 10.679688 -40.925781 13.953125 -42.8125 C 17.222656 -44.695312 21.078125 -45.640625 25.515625 -45.640625 C 30.234375 -45.640625 34.359375 -44.78125 37.890625 -43.0625 L 35.671875 -38.5625 C 32.265625 -40.164062 28.859375 -40.96875 25.453125 -40.96875 Z M 25.453125 -40.96875 "/></g></g></g><g fill="rgb(13.328552%, 13.328552%, 13.328552%)" fill-opacity="1"><g transform="translate(231.213747, 355.066464)"><g><path d="M 40.15625 -45 L 40.15625 -15.875 C 40.15625 -10.75 38.609375 -6.71875 35.515625 -3.78125 C 32.421875 -0.851562 28.164062 0.609375 22.75 0.609375 C 17.332031 0.609375 13.140625 -0.863281 10.171875 -3.8125 C 7.203125 -6.769531 5.71875 -10.832031 5.71875 -16 L 5.71875 -45 L 10.953125 -45 L 10.953125 -15.640625 C 10.953125 -11.878906 11.976562 -8.992188 14.03125 -6.984375 C 16.082031 -4.972656 19.097656 -3.96875 23.078125 -3.96875 C 26.878906 -3.96875 29.804688 -4.976562 31.859375 -7 C 33.910156 -9.019531 34.9375 -11.921875 34.9375 -15.703125 L 34.9375 -45 Z M 40.15625 -45 "/></g></g></g><g fill="rgb(13.328552%, 13.328552%, 13.328552%)" fill-opacity="1"><g transform="translate(294.099271, 355.066464)"><g><path d="M 6.1875 0 L 6.1875 -45 L 11.421875 -45 L 11.421875 -4.734375 L 31.265625 -4.734375 L 31.265625 0 Z M 6.1875 0 "/></g></g></g><g fill="rgb(13.328552%, 13.328552%, 13.328552%)" fill-opacity="1"><g transform="translate(343.819907, 355.066464)"><g><path d="M 34.46875 0 L 28.875 -14.3125 L 10.828125 -14.3125 L 5.296875 0 L 0 0 L 17.796875 -45.1875 L 22.1875 -45.1875 L 39.890625 0 Z M 27.234375 -19.015625 L 22 -32.96875 C 21.320312 -34.726562 20.625 -36.890625 19.90625 -39.453125 C 19.457031 -37.484375 18.8125 -35.320312 17.96875 -32.96875 L 12.6875 -19.015625 Z M 27.234375 -19.015625 "/></g></g></g><g fill="rgb(13.328552%, 13.328552%, 13.328552%)" fill-opacity="1"><g transform="translate(400.70739, 355.066464)"><g><path d="M 20.03125 0 L 14.796875 0 L 14.796875 -40.34375 L 0.546875 -40.34375 L 0.546875 -45 L 34.28125 -45 L 34.28125 -40.34375 L 20.03125 -40.34375 Z M 20.03125 0 "/></g></g></g><g fill="rgb(13.328552%, 13.328552%, 13.328552%)" fill-opacity="1"><g transform="translate(452.581182, 355.066464)"><g><path d="M 45.234375 -22.5625 C 45.234375 -15.351562 43.410156 -9.6875 39.765625 -5.5625 C 36.128906 -1.445312 31.070312 0.609375 24.59375 0.609375 C 17.96875 0.609375 12.851562 -1.414062 9.25 -5.46875 C 5.644531 -9.519531 3.84375 -15.238281 3.84375 -22.625 C 3.84375 -29.945312 5.648438 -35.625 9.265625 -39.65625 C 12.878906 -43.6875 18.007812 -45.703125 24.65625 -45.703125 C 31.113281 -45.703125 36.15625 -43.648438 39.78125 -39.546875 C 43.414062 -35.441406 45.234375 -29.78125 45.234375 -22.5625 Z M 9.390625 -22.5625 C 9.390625 -16.46875 10.6875 -11.84375 13.28125 -8.6875 C 15.875 -5.539062 19.644531 -3.96875 24.59375 -3.96875 C 29.570312 -3.96875 33.332031 -5.535156 35.875 -8.671875 C 38.425781 -11.816406 39.703125 -16.445312 39.703125 -22.5625 C 39.703125 -28.613281 38.429688 -33.203125 35.890625 -36.328125 C 33.359375 -39.460938 29.613281 -41.03125 24.65625 -41.03125 C 19.664062 -41.03125 15.875 -39.453125 13.28125 -36.296875 C 10.6875 -33.148438 9.390625 -28.570312 9.390625 -22.5625 Z M 9.390625 -22.5625 "/></g></g></g><g fill="rgb(13.328552%, 13.328552%, 13.328552%)" fill-opacity="1"><g transform="translate(518.665669, 355.066464)"><g><path d="M 11.421875 -18.71875 L 11.421875 0 L 6.1875 0 L 6.1875 -45 L 18.53125 -45 C 24.050781 -45 28.128906 -43.941406 30.765625 -41.828125 C 33.398438 -39.710938 34.71875 -36.53125 34.71875 -32.28125 C 34.71875 -26.332031 31.703125 -22.3125 25.671875 -20.21875 L 37.890625 0 L 31.703125 0 L 20.8125 -18.71875 Z M 11.421875 -23.203125 L 18.59375 -23.203125 C 22.28125 -23.203125 24.984375 -23.9375 26.703125 -25.40625 C 28.429688 -26.875 29.296875 -29.078125 29.296875 -32.015625 C 29.296875 -34.984375 28.414062 -37.125 26.65625 -38.4375 C 24.90625 -39.75 22.09375 -40.40625 18.21875 -40.40625 L 11.421875 -40.40625 Z M 11.421875 -23.203125 "/></g></g></g><path fill="rgb(100%, 36.079407%, 36.079407%)" d="M 51.457031 7.488281 C 50.136719 7.488281 48.816406 7.550781 47.5 7.679688 C 46.183594 7.8125 44.878906 8.003906 43.582031 8.261719 C 42.285156 8.519531 41.003906 8.839844 39.738281 9.226562 C 38.472656 9.609375 37.226562 10.054688 36.003906 10.5625 C 34.785156 11.066406 33.589844 11.632812 32.421875 12.253906 C 31.257812 12.878906 30.125 13.558594 29.023438 14.292969 C 27.925781 15.027344 26.863281 15.8125 25.839844 16.652344 C 24.816406 17.492188 23.839844 18.378906 22.90625 19.3125 C 21.96875 20.25 21.082031 21.226562 20.242188 22.25 C 19.402344 23.273438 18.617188 24.335938 17.882812 25.433594 C 17.148438 26.535156 16.46875 27.667969 15.84375 28.832031 C 15.222656 30 14.65625 31.191406 14.152344 32.414062 C 13.644531 33.636719 13.199219 34.878906 12.816406 36.144531 C 12.429688 37.410156 12.109375 38.695312 11.851562 39.992188 C 11.59375 41.289062 11.402344 42.59375 11.269531 43.910156 C 11.140625 45.226562 11.078125 46.546875 11.078125 47.867188 C 11.078125 49.191406 11.140625 50.511719 11.269531 51.828125 C 11.402344 53.144531 11.59375 54.449219 11.851562 55.746094 C 12.109375 57.042969 12.429688 58.324219 12.816406 59.589844 C 13.199219 60.855469 13.644531 62.101562 14.152344 63.320312 C 14.65625 64.542969 15.222656 65.738281 15.84375 66.90625 C 16.46875 68.070312 17.148438 69.203125 17.882812 70.304688 C 18.617188 71.402344 19.402344 72.464844 20.242188 73.488281 C 21.082031 74.507812 21.96875 75.488281 22.90625 76.421875 C 23.839844 77.359375 24.816406 78.246094 25.839844 79.085938 C 26.863281 79.921875 27.925781 80.710938 29.023438 81.445312 C 30.125 82.179688 31.257812 82.859375 32.421875 83.480469 C 33.589844 84.105469 34.785156 84.671875 36.003906 85.175781 C 37.226562 85.683594 38.472656 86.128906 39.738281 86.511719 C 41.003906 86.894531 42.285156 87.214844 43.582031 87.476562 C 44.878906 87.734375 46.183594 87.925781 47.5 88.054688 C 48.816406 88.1875 50.136719 88.25 51.457031 88.25 C 52.78125 88.25 54.101562 88.1875 55.417969 88.054688 C 56.734375 87.925781 58.039062 87.734375 59.335938 87.476562 C 60.632812 87.214844 61.914062 86.894531 63.179688 86.511719 C 64.445312 86.128906 65.691406 85.683594 66.914062 85.175781 C 68.132812 84.671875 69.328125 84.105469 70.496094 83.480469 C 71.660156 82.859375 72.792969 82.179688 73.894531 81.445312 C 74.992188 80.710938 76.054688 79.921875 77.078125 79.085938 C 78.097656 78.246094 79.078125 77.359375 80.011719 76.421875 C 80.949219 75.488281 81.835938 74.507812 82.675781 73.488281 C 83.511719 72.464844 84.300781 71.402344 85.035156 70.304688 C 85.769531 69.203125 86.449219 68.070312 87.074219 66.90625 C 87.695312 65.738281 88.261719 64.542969 88.765625 63.320312 C 89.273438 62.101562 89.71875 60.855469 90.101562 59.589844 C 90.484375 58.324219 90.808594 57.042969 91.066406 55.746094 C 91.324219 54.449219 91.515625 53.144531 91.644531 51.828125 C 91.777344 50.511719 91.839844 49.191406 91.839844 47.867188 C 91.839844 46.546875 91.777344 45.226562 91.644531 43.910156 C 91.515625 42.59375 91.324219 41.289062 91.066406 39.992188 C 90.808594 38.695312 90.484375 37.410156 90.101562 36.144531 C 89.71875 34.878906 89.273438 33.636719 88.765625 32.414062 C 88.261719 31.191406 87.695312 30 87.074219 28.832031 C 86.449219 27.667969 85.769531 26.535156 85.035156 25.433594 C 84.300781 24.335938 83.511719 23.273438 82.675781 22.25 C 81.835938 21.226562 80.949219 20.25 80.011719 19.3125 C 79.078125 18.378906 78.097656 17.492188 77.078125 16.652344 C 76.054688 15.8125 74.992188 15.027344 73.894531 14.292969 C 72.792969 13.558594 71.660156 12.878906 70.496094 12.253906 C 69.328125 11.632812 68.132812 11.066406 66.914062 10.5625 C 65.691406 10.054688 64.445312 9.609375 63.179688 9.226562 C 61.914062 8.839844 60.632812 8.519531 59.335938 8.261719 C 58.039062 8.003906 56.734375 7.8125 55.417969 7.679688 C 54.101562 7.550781 52.78125 7.488281 51.457031 7.488281 Z M 51.457031 7.488281 " fill-opacity="1" fill-rule="nonzero"/><path fill="rgb(65.879822%, 65.879822%, 65.879822%)" d="M 180.6875 7.488281 C 179.363281 7.488281 178.042969 7.550781 176.726562 7.679688 C 175.410156 7.8125 174.105469 8.003906 172.808594 8.261719 C 171.511719 8.519531 170.230469 8.839844 168.964844 9.226562 C 167.699219 9.609375 166.453125 10.054688 165.234375 10.5625 C 164.011719 11.066406 162.816406 11.632812 161.652344 12.253906 C 160.484375 12.878906 159.351562 13.558594 158.25 14.292969 C 157.152344 15.027344 156.089844 15.8125 155.066406 16.652344 C 154.046875 17.492188 153.066406 18.378906 152.132812 19.3125 C 151.195312 20.25 150.308594 21.226562 149.46875 22.25 C 148.632812 23.273438 147.84375 24.335938 147.109375 25.433594 C 146.375 26.535156 145.695312 27.667969 145.074219 28.832031 C 144.449219 30 143.882812 31.191406 143.378906 32.414062 C 142.871094 33.636719 142.425781 34.882812 142.042969 36.148438 C 141.660156 37.410156 141.339844 38.695312 141.082031 39.992188 C 140.820312 41.289062 140.628906 42.59375 140.5 43.910156 C 140.367188 45.226562 140.304688 46.546875 140.304688 47.867188 C 140.304688 49.191406 140.367188 50.511719 140.5 51.828125 C 140.628906 53.144531 140.820312 54.449219 141.082031 55.746094 C 141.339844 57.042969 141.660156 58.324219 142.042969 59.589844 C 142.425781 60.855469 142.871094 62.101562 143.378906 63.324219 C 143.882812 64.542969 144.449219 65.738281 145.074219 66.90625 C 145.695312 68.070312 146.375 69.203125 147.109375 70.304688 C 147.84375 71.402344 148.632812 72.464844 149.46875 73.488281 C 150.308594 74.507812 151.195312 75.488281 152.132812 76.421875 C 153.066406 77.359375 154.046875 78.246094 155.066406 79.085938 C 156.089844 79.921875 157.152344 80.710938 158.25 81.445312 C 159.351562 82.179688 160.484375 82.859375 161.652344 83.484375 C 162.816406 84.105469 164.011719 84.671875 165.234375 85.175781 C 166.453125 85.683594 167.699219 86.128906 168.964844 86.511719 C 170.230469 86.894531 171.511719 87.21875 172.808594 87.476562 C 174.105469 87.734375 175.410156 87.925781 176.726562 88.054688 C 178.042969 88.1875 179.363281 88.25 180.6875 88.25 C 182.007812 88.25 183.328125 88.1875 184.644531 88.054688 C 185.960938 87.925781 187.265625 87.734375 188.566406 87.476562 C 189.863281 87.21875 191.144531 86.894531 192.410156 86.511719 C 193.675781 86.128906 194.917969 85.683594 196.140625 85.175781 C 197.363281 84.671875 198.554688 84.105469 199.722656 83.484375 C 200.890625 82.859375 202.023438 82.179688 203.121094 81.445312 C 204.222656 80.710938 205.28125 79.921875 206.304688 79.085938 C 207.328125 78.246094 208.304688 77.359375 209.242188 76.421875 C 210.175781 75.488281 211.0625 74.507812 211.902344 73.488281 C 212.742188 72.464844 213.527344 71.402344 214.261719 70.304688 C 214.996094 69.203125 215.675781 68.070312 216.300781 66.90625 C 216.921875 65.738281 217.488281 64.542969 217.996094 63.324219 C 218.5 62.101562 218.945312 60.855469 219.328125 59.589844 C 219.714844 58.324219 220.035156 57.042969 220.292969 55.746094 C 220.550781 54.449219 220.746094 53.144531 220.875 51.828125 C 221.003906 50.511719 221.070312 49.191406 221.070312 47.867188 C 221.070312 46.546875 221.003906 45.226562 220.875 43.910156 C 220.746094 42.59375 220.550781 41.289062 220.292969 39.992188 C 220.035156 38.695312 219.714844 37.410156 219.328125 36.148438 C 218.945312 34.882812 218.5 33.636719 217.996094 32.414062 C 217.488281 31.191406 216.921875 30 216.300781 28.832031 C 215.675781 27.667969 214.996094 26.535156 214.261719 25.433594 C 213.527344 24.335938 212.742188 23.273438 211.902344 22.25 C 211.0625 21.226562 210.175781 20.25 209.242188 19.3125 C 208.304688 18.378906 207.328125 17.492188 206.304688 16.652344 C 205.28125 15.8125 204.222656 15.027344 203.121094 14.292969 C 202.023438 13.558594 200.890625 12.878906 199.722656 12.253906 C 198.554688 11.632812 197.363281 11.066406 196.140625 10.5625 C 194.917969 10.054688 193.675781 9.609375 192.410156 9.226562 C 191.144531 8.839844 189.863281 8.519531 188.566406 8.261719 C 187.265625 8.003906 185.960938 7.8125 184.644531 7.679688 C 183.328125 7.550781 182.007812 7.488281 180.6875 7.488281 Z M 180.6875 7.488281 " fill-opacity="1" fill-rule="nonzero"/><path fill="rgb(100%, 74.119568%, 29.019165%)" d="M 309.914062 7.488281 C 308.589844 7.488281 307.273438 7.550781 305.957031 7.679688 C 304.640625 7.8125 303.332031 8.003906 302.035156 8.261719 C 300.738281 8.519531 299.457031 8.839844 298.191406 9.226562 C 296.925781 9.609375 295.683594 10.054688 294.460938 10.5625 C 293.238281 11.066406 292.042969 11.632812 290.878906 12.253906 C 289.710938 12.878906 288.578125 13.558594 287.480469 14.292969 C 286.378906 15.027344 285.320312 15.8125 284.296875 16.652344 C 283.273438 17.492188 282.292969 18.378906 281.359375 19.3125 C 280.425781 20.25 279.539062 21.226562 278.699219 22.25 C 277.859375 23.273438 277.074219 24.335938 276.335938 25.433594 C 275.601562 26.535156 274.921875 27.667969 274.300781 28.832031 C 273.675781 30 273.113281 31.191406 272.605469 32.414062 C 272.101562 33.636719 271.65625 34.878906 271.269531 36.144531 C 270.886719 37.410156 270.566406 38.695312 270.308594 39.992188 C 270.050781 41.289062 269.855469 42.59375 269.726562 43.910156 C 269.597656 45.226562 269.53125 46.546875 269.53125 47.867188 C 269.53125 49.191406 269.597656 50.511719 269.726562 51.828125 C 269.855469 53.144531 270.050781 54.449219 270.308594 55.746094 C 270.566406 57.042969 270.886719 58.324219 271.269531 59.589844 C 271.65625 60.855469 272.101562 62.101562 272.605469 63.320312 C 273.113281 64.542969 273.675781 65.738281 274.300781 66.90625 C 274.921875 68.070312 275.601562 69.203125 276.335938 70.304688 C 277.074219 71.402344 277.859375 72.464844 278.699219 73.488281 C 279.539062 74.507812 280.425781 75.488281 281.359375 76.421875 C 282.292969 77.359375 283.273438 78.246094 284.296875 79.085938 C 285.320312 79.921875 286.378906 80.710938 287.480469 81.445312 C 288.578125 82.179688 289.710938 82.859375 290.878906 83.480469 C 292.042969 84.105469 293.238281 84.671875 294.460938 85.175781 C 295.683594 85.683594 296.925781 86.128906 298.191406 86.511719 C 299.457031 86.894531 300.738281 87.214844 302.035156 87.476562 C 303.332031 87.734375 304.640625 87.925781 305.957031 88.054688 C 307.273438 88.1875 308.589844 88.25 309.914062 88.25 C 311.238281 88.25 312.554688 88.1875 313.871094 88.054688 C 315.1875 87.925781 316.496094 87.734375 317.792969 87.476562 C 319.089844 87.214844 320.371094 86.894531 321.636719 86.511719 C 322.902344 86.128906 324.144531 85.683594 325.367188 85.175781 C 326.589844 84.671875 327.785156 84.105469 328.949219 83.480469 C 330.117188 82.859375 331.25 82.179688 332.347656 81.445312 C 333.449219 80.710938 334.507812 79.921875 335.53125 79.085938 C 336.554688 78.246094 337.535156 77.359375 338.46875 76.421875 C 339.402344 75.488281 340.289062 74.507812 341.128906 73.488281 C 341.96875 72.464844 342.753906 71.402344 343.492188 70.304688 C 344.226562 69.203125 344.90625 68.070312 345.527344 66.90625 C 346.152344 65.738281 346.714844 64.542969 347.222656 63.320312 C 347.726562 62.101562 348.171875 60.855469 348.558594 59.589844 C 348.941406 58.324219 349.261719 57.042969 349.519531 55.746094 C 349.777344 54.449219 349.972656 53.144531 350.101562 51.828125 C 350.230469 50.511719 350.296875 49.191406 350.296875 47.867188 C 350.296875 46.546875 350.230469 45.226562 350.101562 43.910156 C 349.972656 42.59375 349.777344 41.289062 349.519531 39.992188 C 349.261719 38.695312 348.941406 37.410156 348.558594 36.144531 C 348.171875 34.878906 347.726562 33.636719 347.222656 32.414062 C 346.714844 31.191406 346.152344 30 345.527344 28.832031 C 344.90625 27.667969 344.226562 26.535156 343.492188 25.433594 C 342.753906 24.335938 341.96875 23.273438 341.128906 22.25 C 340.289062 21.226562 339.402344 20.25 338.46875 19.3125 C 337.535156 18.378906 336.554688 17.492188 335.53125 16.652344 C 334.507812 15.8125 333.449219 15.027344 332.347656 14.292969 C 331.25 13.558594 330.117188 12.878906 328.949219 12.253906 C 327.785156 11.632812 326.589844 11.066406 325.367188 10.5625 C 324.144531 10.054688 322.902344 9.609375 321.636719 9.226562 C 320.371094 8.839844 319.089844 8.519531 317.792969 8.261719 C 316.496094 8.003906 315.1875 7.8125 313.871094 7.679688 C 312.554688 7.550781 311.238281 7.488281 309.914062 7.488281 Z M 309.914062 7.488281 " fill-opacity="1" fill-rule="nonzero"/></svg>